<?xml version="1.0" encoding="utf-8"?>
<!-- Generator: Adobe Illustrator 23.0.1, SVG Export Plug-In . SVG Version: 6.00 Build 0)  -->
<svg version="1.1" id="Lag_1" xmlns="http://www.w3.org/2000/svg" xmlns:xlink="http://www.w3.org/1999/xlink" x="0px" y="0px"
	 viewBox="0 0 1125 178.5" style="enable-background:new 0 0 1125 178.5;" xml:space="preserve">
<style type="text/css">
	.st0{fill:#FFFFFF;}
	.st1{display:none;}
	.st2{font-family:'NexaLight';}
	.st3{font-size:197px;}
	.st4{letter-spacing:-3;}
</style>
<g>
	<path class="st0" d="M81,66.6c-6.9-6.5-14.8-8.7-24-8.7c-11.4,0-17.7,3.5-17.7,9.7c0,6.3,5.7,9.9,18.1,10.6
		c18.3,1.2,41.6,5.3,41.6,31.1c0,17.1-14,31.9-41.8,31.9c-15.4,0-30.7-2.6-44.9-17.3L24,106.8c6.9,7.7,22.7,13.4,33.5,13.6
		c9.1,0.2,17.5-4.5,17.5-11.6c0-6.7-5.5-9.5-19.3-10.2c-18.3-1.4-40.2-8.1-40.2-30.1c0-22.5,23.2-30.3,41-30.3
		c15.2,0,26.6,3,37.8,12.8L81,66.6z"/>
	<path class="st0" d="M133.7,0.2v79.6l32.7-39h28.8v1.4l-39.6,44.3l45.1,49.6v1.8h-29l-38-43.9v43.9h-24V0.2H133.7z"/>
	<path class="st0" d="M284.8,40.8h23v97.1h-22.7l-1.2-14.2c-5.5,11.4-20.7,16.9-31.5,17.1c-28.8,0.2-50-17.5-50-51.6
		c0-33.5,22.3-51,50.6-50.8c13,0,25.4,6.1,30.9,15.8L284.8,40.8z M226.5,89.2c0,18.5,12.8,29.6,28.8,29.6c37.8,0,37.8-58.9,0-58.9
		C239.3,59.9,226.5,70.7,226.5,89.2z"/>
	<path class="st0" d="M346.5,40.8l1.8,11.2c7.5-12,17.5-13.8,27.4-13.8c10,0,19.7,3.9,25,9.3l-10.8,20.9c-4.9-4.1-9.5-6.3-17.3-6.3
		c-12.6,0-24.2,6.7-24.2,24.6v51.2h-24V40.8H346.5z"/>
	<path class="st0" d="M405.8,178.5V40.8h22.5l1.6,13.4c7.5-10.8,20.5-15.6,31.5-15.6c29.9,0,49.8,22.3,49.8,50.8
		c0,28.4-17.9,50.8-49.1,50.8c-10.2,0-25.4-3.2-32.3-13.8v52H405.8z M487.2,89.4c0-15.2-10.2-27.6-27.6-27.6
		c-17.3,0-27.6,12.4-27.6,27.6c0,15.2,11.2,27.6,27.6,27.6S487.2,104.6,487.2,89.4z"/>
	<path class="st0" d="M558.9,13.4V41h26.8v20.7h-27v42c0,9.3,5.1,13.8,12.6,13.8c3.7,0,8.1-1.2,11.6-3l6.7,20.5
		c-6.9,2.8-12.6,3.9-19.9,4.1c-21.1,0.8-34.9-11.2-34.9-35.5v-42h-18.1V41h18.1V16L558.9,13.4z"/>
</g>
<text transform="matrix(1 0 0 1 606.6818 137.9072)" class="st1 st2 st3 st4">media</text>
<g>
	<path class="st0" d="M685.5,38.6c-15,0-30.1,8.1-36.1,24c-5.7-17.3-21.3-24-36.1-24c-4.8,0-9.5,0.8-13.9,2.4v9.7
		c4-1.9,8.6-2.9,13.7-2.9c18.5,0,31.3,13.6,31.3,32.3v57.7h9.6V80.2c0-18.7,12.8-32.5,31.3-32.5s31.1,13.2,31.1,31.9v58.3h9.7V79.6
		C726.3,55.4,709.4,38.6,685.5,38.6z"/>
	<path class="st0" d="M793.5,39C766.1,39,744,60.1,744,89.2c0,30.9,22.1,50,49.4,50c15.6,0,32.5-6.3,42-18.7l-6.9-5.5
		c-7.3,9.7-22.3,14.8-35.1,14.8c-20.1,0-37.6-13.2-39.6-36h87.7C845.3,55.8,820.9,39,793.5,39z M753.9,85.3
		c2.2-23.8,19.5-37.4,39.6-37.4c23.4,0,39.2,13.4,39.4,37.4H753.9z"/>
	<path class="st0" d="M946.6,0v61.9C938.7,46.1,922.9,39,906.2,39c-27.2,0-48.9,18.1-48.9,50.2c0,32.3,21.5,50.2,48.7,50.2
		c16.5,0,32.5-8.3,40.6-23.1v21.5h9.5V0H946.6z M906.6,130c-21.9,0-39.8-13.8-39.8-40.8c0-27.4,17.9-41,39.8-41
		c22.5,0,39.8,16.5,39.8,40.8C946.4,113.3,929.4,130,906.6,130z"/>
	<path class="st0" d="M977.1,8.9c0,10.2,15.6,10.2,15.6,0C992.6-1.4,977.1-1.4,977.1,8.9z M979.8,40.2v97.7h9.7V40.2H979.8z"/>
	<path class="st0" d="M1097.1,40.6v21.3c-8.1-15.2-24-22.5-39.8-22.5c-27.2,0-49.4,20.1-49.4,49.8c0,29.7,22.3,50.2,49.4,50.2
		c15.8,0,30.3-7.1,39.8-22.3v20.7h9.7V40.6H1097.1z M1057.3,130c-22.1,0-39.8-16.4-39.8-40.8s17.7-40.6,39.8-40.6
		C1111.4,48.7,1111.4,130,1057.3,130z"/>
</g>
</svg>
